<?xml version="1.0" encoding="UTF-8" standalone="no"?>
<!DOCTYPE svg PUBLIC "-//W3C//DTD SVG 1.1//EN"
 "http://www.w3.org/Graphics/SVG/1.1/DTD/svg11.dtd">
<!-- Generated by graphviz version 2.43.0 (0)
 -->
<!-- Title: %3 Pages: 1 -->
<svg width="1177pt" height="705pt"
 viewBox="0.00 0.00 1177.00 704.50" xmlns="http://www.w3.org/2000/svg" xmlns:xlink="http://www.w3.org/1999/xlink">
<g id="graph0" class="graph" transform="scale(1 1) rotate(0) translate(4 700.5)">
<title>%3</title>
<polygon fill="#ffffff" stroke="transparent" points="-4,4 -4,-700.5 1173,-700.5 1173,4 -4,4"/>
<!-- RP2040 -->
<g id="node1" class="node">
<title>RP2040</title>
<polygon fill="#ffffff" stroke="black" points="183,-463.5 0,-463.5 0,-141.5 183,-141.5 183,-463.5"/>
<polygon fill="none" stroke="black" points="0.5,-440.5 0.5,-463.5 183.5,-463.5 183.5,-440.5 0.5,-440.5"/>
<text text-anchor="start" x="67.5" y="-448.3" font-family="arial" font-size="14.00">RP2040</text>
<polygon fill="none" stroke="black" points="0.5,-417.5 0.5,-440.5 127.5,-440.5 127.5,-417.5 0.5,-417.5"/>
<text text-anchor="start" x="9.5" y="-425.3" font-family="arial" font-size="14.00">Raspberry Pi Pico</text>
<polygon fill="none" stroke="black" points="127.5,-417.5 127.5,-440.5 183.5,-440.5 183.5,-417.5 127.5,-417.5"/>
<text text-anchor="start" x="136.5" y="-425.3" font-family="arial" font-size="14.00">12&#45;pin</text>
<polygon fill="none" stroke="black" points="0.5,-394.5 0.5,-417.5 159.5,-417.5 159.5,-394.5 0.5,-394.5"/>
<text text-anchor="start" x="29.5" y="-402.3" font-family="arial" font-size="14.00">GP0/SDA (pin 1)</text>
<polygon fill="none" stroke="black" points="159.5,-394.5 159.5,-417.5 183.5,-417.5 183.5,-394.5 159.5,-394.5"/>
<text text-anchor="start" x="167.5" y="-402.3" font-family="arial" font-size="14.00">1</text>
<polygon fill="none" stroke="black" points="0.5,-371.5 0.5,-394.5 159.5,-394.5 159.5,-371.5 0.5,-371.5"/>
<text text-anchor="start" x="30" y="-379.3" font-family="arial" font-size="14.00">GP1/SCL (pin 2)</text>
<polygon fill="none" stroke="black" points="159.5,-371.5 159.5,-394.5 183.5,-394.5 183.5,-371.5 159.5,-371.5"/>
<text text-anchor="start" x="167.5" y="-379.3" font-family="arial" font-size="14.00">2</text>
<polygon fill="none" stroke="black" points="0.5,-348.5 0.5,-371.5 159.5,-371.5 159.5,-348.5 0.5,-348.5"/>
<text text-anchor="start" x="33.5" y="-356.3" font-family="arial" font-size="14.00">GP4/CS (pin 6)</text>
<polygon fill="none" stroke="black" points="159.5,-348.5 159.5,-371.5 183.5,-371.5 183.5,-348.5 159.5,-348.5"/>
<text text-anchor="start" x="167.5" y="-356.3" font-family="arial" font-size="14.00">3</text>
<polygon fill="none" stroke="black" points="0.5,-325.5 0.5,-348.5 159.5,-348.5 159.5,-325.5 0.5,-325.5"/>
<text text-anchor="start" x="33" y="-333.3" font-family="arial" font-size="14.00">GP5/DC (pin 7)</text>
<polygon fill="none" stroke="black" points="159.5,-325.5 159.5,-348.5 183.5,-348.5 183.5,-325.5 159.5,-325.5"/>
<text text-anchor="start" x="167.5" y="-333.3" font-family="arial" font-size="14.00">4</text>
<polygon fill="none" stroke="black" points="0.5,-302.5 0.5,-325.5 159.5,-325.5 159.5,-302.5 0.5,-302.5"/>
<text text-anchor="start" x="29" y="-310.3" font-family="arial" font-size="14.00">GP6/SCK (pin 9)</text>
<polygon fill="none" stroke="black" points="159.5,-302.5 159.5,-325.5 183.5,-325.5 183.5,-302.5 159.5,-302.5"/>
<text text-anchor="start" x="167.5" y="-310.3" font-family="arial" font-size="14.00">5</text>
<polygon fill="none" stroke="black" points="0.5,-279.5 0.5,-302.5 159.5,-302.5 159.5,-279.5 0.5,-279.5"/>
<text text-anchor="start" x="21" y="-287.3" font-family="arial" font-size="14.00">GP7/MOSI (pin 10)</text>
<polygon fill="none" stroke="black" points="159.5,-279.5 159.5,-302.5 183.5,-302.5 183.5,-279.5 159.5,-279.5"/>
<text text-anchor="start" x="167.5" y="-287.3" font-family="arial" font-size="14.00">6</text>
<polygon fill="none" stroke="black" points="0.5,-256.5 0.5,-279.5 159.5,-279.5 159.5,-256.5 0.5,-256.5"/>
<text text-anchor="start" x="8.5" y="-264.3" font-family="arial" font-size="14.00">GP10/SD_SCK (pin 14)</text>
<polygon fill="none" stroke="black" points="159.5,-256.5 159.5,-279.5 183.5,-279.5 183.5,-256.5 159.5,-256.5"/>
<text text-anchor="start" x="167.5" y="-264.3" font-family="arial" font-size="14.00">7</text>
<polygon fill="none" stroke="black" points="0.5,-233.5 0.5,-256.5 159.5,-256.5 159.5,-233.5 0.5,-233.5"/>
<text text-anchor="start" x="4.5" y="-241.3" font-family="arial" font-size="14.00">GP11/SD_MOSI (pin 15)</text>
<polygon fill="none" stroke="black" points="159.5,-233.5 159.5,-256.5 183.5,-256.5 183.5,-233.5 159.5,-233.5"/>
<text text-anchor="start" x="167.5" y="-241.3" font-family="arial" font-size="14.00">8</text>
<polygon fill="none" stroke="black" points="0.5,-210.5 0.5,-233.5 159.5,-233.5 159.5,-210.5 0.5,-210.5"/>
<text text-anchor="start" x="4.5" y="-218.3" font-family="arial" font-size="14.00">GP12/SD_MISO (pin 16)</text>
<polygon fill="none" stroke="black" points="159.5,-210.5 159.5,-233.5 183.5,-233.5 183.5,-210.5 159.5,-210.5"/>
<text text-anchor="start" x="167.5" y="-218.3" font-family="arial" font-size="14.00">9</text>
<polygon fill="none" stroke="black" points="0.5,-187.5 0.5,-210.5 159.5,-210.5 159.5,-187.5 0.5,-187.5"/>
<text text-anchor="start" x="13" y="-195.3" font-family="arial" font-size="14.00">GP13/SD_CS (pin 17)</text>
<polygon fill="none" stroke="black" points="159.5,-187.5 159.5,-210.5 183.5,-210.5 183.5,-187.5 159.5,-187.5"/>
<text text-anchor="start" x="163.5" y="-195.3" font-family="arial" font-size="14.00">10</text>
<polygon fill="none" stroke="black" points="0.5,-164.5 0.5,-187.5 159.5,-187.5 159.5,-164.5 0.5,-164.5"/>
<text text-anchor="start" x="43" y="-172.3" font-family="arial" font-size="14.00">3V3 (pin 36)</text>
<polygon fill="none" stroke="black" points="159.5,-164.5 159.5,-187.5 183.5,-187.5 183.5,-164.5 159.5,-164.5"/>
<text text-anchor="start" x="163.5" y="-172.3" font-family="arial" font-size="14.00">11</text>
<polygon fill="none" stroke="black" points="0.5,-141.5 0.5,-164.5 159.5,-164.5 159.5,-141.5 0.5,-141.5"/>
<text text-anchor="start" x="39.5" y="-149.3" font-family="arial" font-size="14.00">GND (pin 38)</text>
<polygon fill="none" stroke="black" points="159.5,-141.5 159.5,-164.5 183.5,-164.5 183.5,-141.5 159.5,-141.5"/>
<text text-anchor="start" x="163.5" y="-149.3" font-family="arial" font-size="14.00">12</text>
</g>
<!-- I2C -->
<g id="node4" class="node">
<title>I2C</title>
<polygon fill="#ffffff" stroke="black" stroke-dasharray="5,2" points="729.5,-696.5 370.5,-696.5 370.5,-512.5 729.5,-512.5 729.5,-696.5"/>
<polygon fill="none" stroke="black" points="371,-673.5 371,-696.5 730,-696.5 730,-673.5 371,-673.5"/>
<text text-anchor="start" x="539.5" y="-681.3" font-family="arial" font-size="14.00">I2C</text>
<polygon fill="none" stroke="black" points="371,-650.5 371,-673.5 730,-673.5 730,-650.5 371,-650.5"/>
<text text-anchor="start" x="543" y="-658.3" font-family="arial" font-size="14.00">4x</text>
<text text-anchor="start" x="453.5" y="-637.3" font-family="arial" font-size="14.00"> </text>
<text text-anchor="start" x="383" y="-618.3" font-family="arial" font-size="14.00">RP2040:11:3V3 (pin 36)</text>
<text text-anchor="start" x="544.5" y="-618.3" font-family="arial" font-size="14.00"> &#160;&#160;&#160;&#160;RD:3V3 &#160;&#160;&#160;</text>
<text text-anchor="start" x="634" y="-618.3" font-family="arial" font-size="14.00">DS3231:1:VCC</text>
<polygon fill="#000000" stroke="transparent" points="371,-610.5 371,-612.5 730,-612.5 730,-610.5 371,-610.5"/>
<polygon fill="#ff0000" stroke="transparent" points="371,-608.5 371,-610.5 730,-610.5 730,-608.5 371,-608.5"/>
<polygon fill="#000000" stroke="transparent" points="371,-606.5 371,-608.5 730,-608.5 730,-606.5 371,-606.5"/>
<text text-anchor="start" x="379.5" y="-593.3" font-family="arial" font-size="14.00">RP2040:12:GND (pin 38)</text>
<text text-anchor="start" x="542" y="-593.3" font-family="arial" font-size="14.00"> &#160;&#160;&#160;&#160;BK:GND &#160;&#160;&#160;</text>
<text text-anchor="start" x="633" y="-593.3" font-family="arial" font-size="14.00">DS3231:2:GND</text>
<polygon fill="#000000" stroke="transparent" points="371,-585.5 371,-587.5 730,-587.5 730,-585.5 371,-585.5"/>
<polygon fill="#000000" stroke="transparent" points="371,-583.5 371,-585.5 730,-585.5 730,-583.5 371,-583.5"/>
<polygon fill="#000000" stroke="transparent" points="371,-581.5 371,-583.5 730,-583.5 730,-581.5 371,-581.5"/>
<text text-anchor="start" x="373" y="-568.3" font-family="arial" font-size="14.00">RP2040:1:GP0/SDA (pin 1)</text>
<text text-anchor="start" x="542.5" y="-568.3" font-family="arial" font-size="14.00"> &#160;&#160;&#160;&#160;GN:SDA &#160;&#160;&#160;</text>
<text text-anchor="start" x="634.5" y="-568.3" font-family="arial" font-size="14.00">DS3231:3:SDA</text>
<polygon fill="#000000" stroke="transparent" points="371,-560.5 371,-562.5 730,-562.5 730,-560.5 371,-560.5"/>
<polygon fill="#00ff00" stroke="transparent" points="371,-558.5 371,-560.5 730,-560.5 730,-558.5 371,-558.5"/>
<polygon fill="#000000" stroke="transparent" points="371,-556.5 371,-558.5 730,-558.5 730,-556.5 371,-556.5"/>
<text text-anchor="start" x="373.5" y="-543.3" font-family="arial" font-size="14.00">RP2040:2:GP1/SCL (pin 2)</text>
<text text-anchor="start" x="544.5" y="-543.3" font-family="arial" font-size="14.00"> &#160;&#160;&#160;&#160;YE:SCL &#160;&#160;&#160;</text>
<text text-anchor="start" x="635" y="-543.3" font-family="arial" font-size="14.00">DS3231:4:SCL</text>
<polygon fill="#000000" stroke="transparent" points="371,-535.5 371,-537.5 730,-537.5 730,-535.5 371,-535.5"/>
<polygon fill="#ffff00" stroke="transparent" points="371,-533.5 371,-535.5 730,-535.5 730,-533.5 371,-533.5"/>
<polygon fill="#000000" stroke="transparent" points="371,-531.5 371,-533.5 730,-533.5 730,-531.5 371,-531.5"/>
<text text-anchor="start" x="453.5" y="-518.3" font-family="arial" font-size="14.00"> </text>
</g>
<!-- RP2040&#45;&#45;I2C -->
<g id="edge1" class="edge">
<title>RP2040:e&#45;&#45;I2C:w</title>
<path fill="none" stroke="#000000" stroke-width="2" d="M183,-173.5C394.79,-176.45 161.73,-610.45 370,-607.5"/>
<path fill="none" stroke="#ff0000" stroke-width="2" d="M183,-175.5C393.03,-175.5 159.97,-609.5 370,-609.5"/>
<path fill="none" stroke="#000000" stroke-width="2" d="M183,-177.5C391.27,-174.55 158.21,-608.55 370,-611.5"/>
</g>
<!-- RP2040&#45;&#45;I2C -->
<g id="edge3" class="edge">
<title>RP2040:e&#45;&#45;I2C:w</title>
<path fill="none" stroke="#000000" stroke-width="2" d="M183,-150.5C393.98,-153.44 162.55,-585.44 370,-582.5"/>
<path fill="none" stroke="#000000" stroke-width="2" d="M183,-152.5C392.22,-152.5 160.78,-584.5 370,-584.5"/>
<path fill="none" stroke="#000000" stroke-width="2" d="M183,-154.5C390.45,-151.56 159.02,-583.56 370,-586.5"/>
</g>
<!-- RP2040&#45;&#45;I2C -->
<g id="edge5" class="edge">
<title>RP2040:e&#45;&#45;I2C:w</title>
<path fill="none" stroke="#000000" stroke-width="2" d="M183,-404.5C292.35,-406.86 264.58,-559.86 370,-557.5"/>
<path fill="none" stroke="#00ff00" stroke-width="2" d="M183,-406.5C290.38,-406.5 262.62,-559.5 370,-559.5"/>
<path fill="none" stroke="#000000" stroke-width="2" d="M183,-408.5C288.42,-406.14 260.65,-559.14 370,-561.5"/>
</g>
<!-- RP2040&#45;&#45;I2C -->
<g id="edge7" class="edge">
<title>RP2040:e&#45;&#45;I2C:w</title>
<path fill="none" stroke="#000000" stroke-width="2" d="M183,-381.5C291.79,-383.85 265.15,-534.85 370,-532.5"/>
<path fill="none" stroke="#ffff00" stroke-width="2" d="M183,-383.5C289.82,-383.5 263.18,-534.5 370,-534.5"/>
<path fill="none" stroke="#000000" stroke-width="2" d="M183,-385.5C287.85,-383.15 261.21,-534.15 370,-536.5"/>
</g>
<!-- SPI0 -->
<g id="node5" class="node">
<title>SPI0</title>
<polygon fill="#ffffff" stroke="black" stroke-dasharray="5,2" points="727.5,-488 372.5,-488 372.5,-231 727.5,-231 727.5,-488"/>
<polygon fill="none" stroke="black" points="373,-464.5 373,-487.5 728,-487.5 728,-464.5 373,-464.5"/>
<text text-anchor="start" x="535.5" y="-472.3" font-family="arial" font-size="14.00">SPI0</text>
<polygon fill="none" stroke="black" points="373,-441.5 373,-464.5 728,-464.5 728,-441.5 373,-441.5"/>
<text text-anchor="start" x="543" y="-449.3" font-family="arial" font-size="14.00">6x</text>
<text text-anchor="start" x="463.5" y="-428.3" font-family="arial" font-size="14.00"> </text>
<text text-anchor="start" x="393" y="-409.3" font-family="arial" font-size="14.00">RP2040:11:3V3 (pin 36)</text>
<text text-anchor="start" x="565.5" y="-409.3" font-family="arial" font-size="14.00"> &#160;&#160;&#160;&#160;RD:3V3 &#160;&#160;&#160;</text>
<text text-anchor="start" x="661" y="-409.3" font-family="arial" font-size="14.00">D0:1:VCC</text>
<polygon fill="#000000" stroke="transparent" points="373,-401.5 373,-403.5 728,-403.5 728,-401.5 373,-401.5"/>
<polygon fill="#ff0000" stroke="transparent" points="373,-399.5 373,-401.5 728,-401.5 728,-399.5 373,-399.5"/>
<polygon fill="#000000" stroke="transparent" points="373,-397.5 373,-399.5 728,-399.5 728,-397.5 373,-397.5"/>
<text text-anchor="start" x="389.5" y="-384.3" font-family="arial" font-size="14.00">RP2040:12:GND (pin 38)</text>
<text text-anchor="start" x="563" y="-384.3" font-family="arial" font-size="14.00"> &#160;&#160;&#160;&#160;BK:GND &#160;&#160;&#160;</text>
<text text-anchor="start" x="659.5" y="-384.3" font-family="arial" font-size="14.00">D0:2:GND</text>
<polygon fill="#000000" stroke="transparent" points="373,-376.5 373,-378.5 728,-378.5 728,-376.5 373,-376.5"/>
<polygon fill="#000000" stroke="transparent" points="373,-374.5 373,-376.5 728,-376.5 728,-374.5 373,-374.5"/>
<polygon fill="#000000" stroke="transparent" points="373,-372.5 373,-374.5 728,-374.5 728,-372.5 373,-372.5"/>
<text text-anchor="start" x="387" y="-359.3" font-family="arial" font-size="14.00">RP2040:3:GP4/CS (pin 6)</text>
<text text-anchor="start" x="570" y="-359.3" font-family="arial" font-size="14.00"> &#160;&#160;&#160;&#160;VT:CS &#160;&#160;&#160;</text>
<text text-anchor="start" x="665.5" y="-359.3" font-family="arial" font-size="14.00">D0:3:CS</text>
<polygon fill="#000000" stroke="transparent" points="373,-351.5 373,-353.5 728,-353.5 728,-351.5 373,-351.5"/>
<polygon fill="#8000ff" stroke="transparent" points="373,-349.5 373,-351.5 728,-351.5 728,-349.5 373,-349.5"/>
<polygon fill="#000000" stroke="transparent" points="373,-347.5 373,-349.5 728,-349.5 728,-347.5 373,-347.5"/>
<text text-anchor="start" x="387" y="-334.3" font-family="arial" font-size="14.00">RP2040:4:GP5/DC (pin 7)</text>
<text text-anchor="start" x="567" y="-334.3" font-family="arial" font-size="14.00"> &#160;&#160;&#160;&#160;GN:DC &#160;&#160;&#160;</text>
<text text-anchor="start" x="665.5" y="-334.3" font-family="arial" font-size="14.00">D0:4:DC</text>
<polygon fill="#000000" stroke="transparent" points="373,-326.5 373,-328.5 728,-328.5 728,-326.5 373,-326.5"/>
<polygon fill="#00ff00" stroke="transparent" points="373,-324.5 373,-326.5 728,-326.5 728,-324.5 373,-324.5"/>
<polygon fill="#000000" stroke="transparent" points="373,-322.5 373,-324.5 728,-324.5 728,-322.5 373,-322.5"/>
<text text-anchor="start" x="375" y="-309.3" font-family="arial" font-size="14.00">RP2040:6:GP7/MOSI (pin 10)</text>
<text text-anchor="start" x="560" y="-309.3" font-family="arial" font-size="14.00"> &#160;&#160;&#160;&#160;BU:MOSI &#160;&#160;&#160;</text>
<text text-anchor="start" x="657" y="-309.3" font-family="arial" font-size="14.00">D0:5:MOSI</text>
<polygon fill="#000000" stroke="transparent" points="373,-301.5 373,-303.5 728,-303.5 728,-301.5 373,-301.5"/>
<polygon fill="#0066ff" stroke="transparent" points="373,-299.5 373,-301.5 728,-301.5 728,-299.5 373,-299.5"/>
<polygon fill="#000000" stroke="transparent" points="373,-297.5 373,-299.5 728,-299.5 728,-297.5 373,-297.5"/>
<text text-anchor="start" x="382.5" y="-284.3" font-family="arial" font-size="14.00">RP2040:5:GP6/SCK (pin 9)</text>
<text text-anchor="start" x="564.5" y="-284.3" font-family="arial" font-size="14.00"> &#160;&#160;&#160;&#160;YE:SCK &#160;&#160;&#160;</text>
<text text-anchor="start" x="661" y="-284.3" font-family="arial" font-size="14.00">D0:6:SCK</text>
<polygon fill="#000000" stroke="transparent" points="373,-276.5 373,-278.5 728,-278.5 728,-276.5 373,-276.5"/>
<polygon fill="#ffff00" stroke="transparent" points="373,-274.5 373,-276.5 728,-276.5 728,-274.5 373,-274.5"/>
<polygon fill="#000000" stroke="transparent" points="373,-272.5 373,-274.5 728,-274.5 728,-272.5 373,-272.5"/>
<text text-anchor="start" x="463.5" y="-259.3" font-family="arial" font-size="14.00"> </text>
<polygon fill="none" stroke="black" points="373,-230.5 373,-253.5 728,-253.5 728,-230.5 373,-230.5"/>
<text text-anchor="start" x="472.5" y="-238.3" font-family="arial" font-size="14.00">Display SPI0 bus + power</text>
</g>
<!-- RP2040&#45;&#45;SPI0 -->
<g id="edge9" class="edge">
<title>RP2040:e&#45;&#45;SPI0:w</title>
<path fill="none" stroke="#000000" stroke-width="2" d="M183,-173.5C315.5,-176.11 243.31,-401.11 372,-398.5"/>
<path fill="none" stroke="#ff0000" stroke-width="2" d="M183,-175.5C313.6,-175.5 241.4,-400.5 372,-400.5"/>
<path fill="none" stroke="#000000" stroke-width="2" d="M183,-177.5C311.69,-174.89 239.5,-399.89 372,-402.5"/>
</g>
<!-- RP2040&#45;&#45;SPI0 -->
<g id="edge11" class="edge">
<title>RP2040:e&#45;&#45;SPI0:w</title>
<path fill="none" stroke="#000000" stroke-width="2" d="M183,-150.5C314.83,-153.11 243.99,-376.11 372,-373.5"/>
<path fill="none" stroke="#000000" stroke-width="2" d="M183,-152.5C312.92,-152.5 242.08,-375.5 372,-375.5"/>
<path fill="none" stroke="#000000" stroke-width="2" d="M183,-154.5C311.01,-151.89 240.17,-374.89 372,-377.5"/>
</g>
<!-- RP2040&#45;&#45;SPI0 -->
<g id="edge13" class="edge">
<title>RP2040:e&#45;&#45;SPI0:w</title>
<path fill="none" stroke="#000000" stroke-width="2" d="M183,-358.5C266.25,-358.7 287.01,-348.7 372,-348.5"/>
<path fill="none" stroke="#8000ff" stroke-width="2" d="M183,-360.5C267.12,-360.5 287.88,-350.5 372,-350.5"/>
<path fill="none" stroke="#000000" stroke-width="2" d="M183,-362.5C267.99,-362.3 288.75,-352.3 372,-352.5"/>
</g>
<!-- RP2040&#45;&#45;SPI0 -->
<g id="edge15" class="edge">
<title>RP2040:e&#45;&#45;SPI0:w</title>
<path fill="none" stroke="#000000" stroke-width="2" d="M183,-335.5C266.16,-335.77 286.83,-323.77 372,-323.5"/>
<path fill="none" stroke="#00ff00" stroke-width="2" d="M183,-337.5C267.17,-337.5 287.83,-325.5 372,-325.5"/>
<path fill="none" stroke="#000000" stroke-width="2" d="M183,-339.5C268.17,-339.23 288.84,-327.23 372,-327.5"/>
</g>
<!-- RP2040&#45;&#45;SPI0 -->
<g id="edge17" class="edge">
<title>RP2040:e&#45;&#45;SPI0:w</title>
<path fill="none" stroke="#000000" stroke-width="2" d="M183,-288.5C267.99,-288.7 288.75,-298.7 372,-298.5"/>
<path fill="none" stroke="#0066ff" stroke-width="2" d="M183,-290.5C267.12,-290.5 287.88,-300.5 372,-300.5"/>
<path fill="none" stroke="#000000" stroke-width="2" d="M183,-292.5C266.25,-292.3 287.01,-302.3 372,-302.5"/>
</g>
<!-- RP2040&#45;&#45;SPI0 -->
<g id="edge19" class="edge">
<title>RP2040:e&#45;&#45;SPI0:w</title>
<path fill="none" stroke="#000000" stroke-width="2" d="M183,-312.5C266.94,-313.68 284.4,-274.68 372,-273.5"/>
<path fill="none" stroke="#ffff00" stroke-width="2" d="M183,-314.5C268.77,-314.5 286.23,-275.5 372,-275.5"/>
<path fill="none" stroke="#000000" stroke-width="2" d="M183,-316.5C270.6,-315.32 288.06,-276.32 372,-277.5"/>
</g>
<!-- SPI1 -->
<g id="node6" class="node">
<title>SPI1</title>
<polygon fill="#ffffff" stroke="black" stroke-dasharray="5,2" points="773,-207 327,-207 327,0 773,0 773,-207"/>
<polygon fill="none" stroke="black" points="327,-183.5 327,-206.5 773,-206.5 773,-183.5 327,-183.5"/>
<text text-anchor="start" x="535" y="-191.3" font-family="arial" font-size="14.00">SPI1</text>
<polygon fill="none" stroke="black" points="327,-160.5 327,-183.5 773,-183.5 773,-160.5 327,-160.5"/>
<text text-anchor="start" x="542.5" y="-168.3" font-family="arial" font-size="14.00">4x</text>
<text text-anchor="start" x="434.5" y="-147.3" font-family="arial" font-size="14.00"> </text>
<text text-anchor="start" x="334" y="-128.3" font-family="arial" font-size="14.00">RP2040:10:GP13/SD_CS (pin 17)</text>
<text text-anchor="start" x="560.5" y="-128.3" font-family="arial" font-size="14.00"> &#160;&#160;&#160;&#160;VT:SD_CS &#160;&#160;&#160;</text>
<text text-anchor="start" x="684.5" y="-128.3" font-family="arial" font-size="14.00">D0:7:SD_CS</text>
<polygon fill="#000000" stroke="transparent" points="327,-120.5 327,-122.5 773,-122.5 773,-120.5 327,-120.5"/>
<polygon fill="#8000ff" stroke="transparent" points="327,-118.5 327,-120.5 773,-120.5 773,-118.5 327,-118.5"/>
<polygon fill="#000000" stroke="transparent" points="327,-116.5 327,-118.5 773,-118.5 773,-116.5 327,-116.5"/>
<text text-anchor="start" x="329.5" y="-103.3" font-family="arial" font-size="14.00">RP2040:8:GP11/SD_MOSI (pin 15)</text>
<text text-anchor="start" x="550.5" y="-103.3" font-family="arial" font-size="14.00"> &#160;&#160;&#160;&#160;BU:SD_MOSI &#160;&#160;&#160;</text>
<text text-anchor="start" x="676" y="-103.3" font-family="arial" font-size="14.00">D0:8:SD_MOSI</text>
<polygon fill="#000000" stroke="transparent" points="327,-95.5 327,-97.5 773,-97.5 773,-95.5 327,-95.5"/>
<polygon fill="#0066ff" stroke="transparent" points="327,-93.5 327,-95.5 773,-95.5 773,-93.5 327,-93.5"/>
<polygon fill="#000000" stroke="transparent" points="327,-91.5 327,-93.5 773,-93.5 773,-91.5 327,-91.5"/>
<text text-anchor="start" x="329" y="-78.3" font-family="arial" font-size="14.00">RP2040:9:GP12/SD_MISO (pin 16)</text>
<text text-anchor="start" x="548" y="-78.3" font-family="arial" font-size="14.00"> &#160;&#160;&#160;&#160;WH:SD_MISO &#160;&#160;&#160;</text>
<text text-anchor="start" x="676" y="-78.3" font-family="arial" font-size="14.00">D0:9:SD_MISO</text>
<polygon fill="#000000" stroke="transparent" points="327,-70.5 327,-72.5 773,-72.5 773,-70.5 327,-70.5"/>
<polygon fill="#ffffff" stroke="transparent" points="327,-68.5 327,-70.5 773,-70.5 773,-68.5 327,-68.5"/>
<polygon fill="#000000" stroke="transparent" points="327,-66.5 327,-68.5 773,-68.5 773,-66.5 327,-66.5"/>
<text text-anchor="start" x="333" y="-53.3" font-family="arial" font-size="14.00">RP2040:7:GP10/SD_SCK (pin 14)</text>
<text text-anchor="start" x="555" y="-53.3" font-family="arial" font-size="14.00"> &#160;&#160;&#160;&#160;YE:SD_SCK &#160;&#160;&#160;</text>
<text text-anchor="start" x="676.5" y="-53.3" font-family="arial" font-size="14.00">D0:10:SD_SCK</text>
<polygon fill="#000000" stroke="transparent" points="327,-45.5 327,-47.5 773,-47.5 773,-45.5 327,-45.5"/>
<polygon fill="#ffff00" stroke="transparent" points="327,-43.5 327,-45.5 773,-45.5 773,-43.5 327,-43.5"/>
<polygon fill="#000000" stroke="transparent" points="327,-41.5 327,-43.5 773,-43.5 773,-41.5 327,-41.5"/>
<text text-anchor="start" x="434.5" y="-28.3" font-family="arial" font-size="14.00"> </text>
<polygon fill="none" stroke="black" points="327,0.5 327,-22.5 773,-22.5 773,0.5 327,0.5"/>
<text text-anchor="start" x="496" y="-7.3" font-family="arial" font-size="14.00">SD card SPI1 bus</text>
</g>
<!-- RP2040&#45;&#45;SPI1 -->
<g id="edge21" class="edge">
<title>RP2040:e&#45;&#45;SPI1:w</title>
<path fill="none" stroke="#000000" stroke-width="2" d="M183,-196.5C254,-198.55 252,-119.55 327,-117.5"/>
<path fill="none" stroke="#8000ff" stroke-width="2" d="M183,-198.5C256,-198.5 254,-119.5 327,-119.5"/>
<path fill="none" stroke="#000000" stroke-width="2" d="M183,-200.5C258,-198.45 256,-119.45 327,-121.5"/>
</g>
<!-- RP2040&#45;&#45;SPI1 -->
<g id="edge23" class="edge">
<title>RP2040:e&#45;&#45;SPI1:w</title>
<path fill="none" stroke="#000000" stroke-width="2" d="M183,-242.5C273.48,-245.03 232.66,-95.03 327,-92.5"/>
<path fill="none" stroke="#0066ff" stroke-width="2" d="M183,-244.5C275.41,-244.5 234.59,-94.5 327,-94.5"/>
<path fill="none" stroke="#000000" stroke-width="2" d="M183,-246.5C277.34,-243.97 236.52,-93.97 327,-96.5"/>
</g>
<!-- RP2040&#45;&#45;SPI1 -->
<g id="edge25" class="edge">
<title>RP2040:e&#45;&#45;SPI1:w</title>
<path fill="none" stroke="#000000" stroke-width="2" d="M183,-219.5C274.13,-222.03 232.01,-70.03 327,-67.5"/>
<path fill="none" stroke="#ffffff" stroke-width="2" d="M183,-221.5C276.06,-221.5 233.94,-69.5 327,-69.5"/>
<path fill="none" stroke="#000000" stroke-width="2" d="M183,-223.5C277.99,-220.97 235.87,-68.97 327,-71.5"/>
</g>
<!-- RP2040&#45;&#45;SPI1 -->
<g id="edge27" class="edge">
<title>RP2040:e&#45;&#45;SPI1:w</title>
<path fill="none" stroke="#000000" stroke-width="2" d="M183,-265.5C299.13,-268.26 207.17,-45.26 327,-42.5"/>
<path fill="none" stroke="#ffff00" stroke-width="2" d="M183,-267.5C300.98,-267.5 209.02,-44.5 327,-44.5"/>
<path fill="none" stroke="#000000" stroke-width="2" d="M183,-269.5C302.83,-266.74 210.87,-43.74 327,-46.5"/>
</g>
<!-- DS3231 -->
<g id="node2" class="node">
<title>DS3231</title>
<polygon fill="#ffffff" stroke="black" points="1119.5,-664 966.5,-664 966.5,-473 1119.5,-473 1119.5,-664"/>
<polygon fill="none" stroke="black" points="967,-640.5 967,-663.5 1120,-663.5 1120,-640.5 967,-640.5"/>
<text text-anchor="start" x="1019" y="-648.3" font-family="arial" font-size="14.00">DS3231</text>
<polygon fill="none" stroke="black" points="967,-617.5 967,-640.5 1067,-640.5 1067,-617.5 967,-617.5"/>
<text text-anchor="start" x="978.5" y="-625.3" font-family="arial" font-size="14.00">RTC Module</text>
<polygon fill="none" stroke="black" points="1067,-617.5 1067,-640.5 1120,-640.5 1120,-617.5 1067,-617.5"/>
<text text-anchor="start" x="1078" y="-625.3" font-family="arial" font-size="14.00">4&#45;pin</text>
<polygon fill="none" stroke="black" points="967,-594.5 967,-617.5 1032,-617.5 1032,-594.5 967,-594.5"/>
<text text-anchor="start" x="995.5" y="-602.3" font-family="arial" font-size="14.00">1</text>
<polygon fill="none" stroke="black" points="1032,-594.5 1032,-617.5 1120,-617.5 1120,-594.5 1032,-594.5"/>
<text text-anchor="start" x="1061.5" y="-602.3" font-family="arial" font-size="14.00">VCC</text>
<polygon fill="none" stroke="black" points="967,-571.5 967,-594.5 1032,-594.5 1032,-571.5 967,-571.5"/>
<text text-anchor="start" x="995.5" y="-579.3" font-family="arial" font-size="14.00">2</text>
<polygon fill="none" stroke="black" points="1032,-571.5 1032,-594.5 1120,-594.5 1120,-571.5 1032,-571.5"/>
<text text-anchor="start" x="1060.5" y="-579.3" font-family="arial" font-size="14.00">GND</text>
<polygon fill="none" stroke="black" points="967,-548.5 967,-571.5 1032,-571.5 1032,-548.5 967,-548.5"/>
<text text-anchor="start" x="995.5" y="-556.3" font-family="arial" font-size="14.00">3</text>
<polygon fill="none" stroke="black" points="1032,-548.5 1032,-571.5 1120,-571.5 1120,-548.5 1032,-548.5"/>
<text text-anchor="start" x="1062" y="-556.3" font-family="arial" font-size="14.00">SDA</text>
<polygon fill="none" stroke="black" points="967,-525.5 967,-548.5 1032,-548.5 1032,-525.5 967,-525.5"/>
<text text-anchor="start" x="995.5" y="-533.3" font-family="arial" font-size="14.00">4</text>
<polygon fill="none" stroke="black" points="1032,-525.5 1032,-548.5 1120,-548.5 1120,-525.5 1032,-525.5"/>
<text text-anchor="start" x="1062.5" y="-533.3" font-family="arial" font-size="14.00">SCL</text>
<polygon fill="none" stroke="black" points="967,-472.5 967,-525.5 1120,-525.5 1120,-472.5 967,-472.5"/>
<text text-anchor="start" x="971" y="-510.3" font-family="arial" font-size="14.00">I2C address 0x68</text>
<text text-anchor="start" x="971" y="-495.3" font-family="arial" font-size="14.00">Onboard 4.7kΩ pull&#45;ups</text>
<text text-anchor="start" x="971" y="-480.3" font-family="arial" font-size="14.00">SQW/32K unused</text>
</g>
<!-- D0 -->
<g id="node3" class="node">
<title>D0</title>
<polygon fill="#ffffff" stroke="black" points="1169,-448.5 917,-448.5 917,-134.5 1169,-134.5 1169,-448.5"/>
<polygon fill="none" stroke="black" points="917,-425.5 917,-448.5 1169,-448.5 1169,-425.5 917,-425.5"/>
<text text-anchor="start" x="1034" y="-433.3" font-family="arial" font-size="14.00">D0</text>
<polygon fill="none" stroke="black" points="917,-402.5 917,-425.5 1061,-425.5 1061,-402.5 917,-402.5"/>
<text text-anchor="start" x="921" y="-410.3" font-family="arial" font-size="14.00">ILI9341 2.2&quot; TFT + SD</text>
<polygon fill="none" stroke="black" points="1061,-402.5 1061,-425.5 1123,-425.5 1123,-402.5 1061,-402.5"/>
<text text-anchor="start" x="1065" y="-410.3" font-family="arial" font-size="14.00">240×320</text>
<polygon fill="none" stroke="black" points="1123,-402.5 1123,-425.5 1169,-425.5 1169,-402.5 1123,-402.5"/>
<text text-anchor="start" x="1127" y="-410.3" font-family="arial" font-size="14.00">10&#45;pin</text>
<polygon fill="none" stroke="black" points="917,-379.5 917,-402.5 1020,-402.5 1020,-379.5 917,-379.5"/>
<text text-anchor="start" x="964.5" y="-387.3" font-family="arial" font-size="14.00">1</text>
<polygon fill="none" stroke="black" points="1020,-379.5 1020,-402.5 1169,-402.5 1169,-379.5 1020,-379.5"/>
<text text-anchor="start" x="1080" y="-387.3" font-family="arial" font-size="14.00">VCC</text>
<polygon fill="none" stroke="black" points="917,-356.5 917,-379.5 1020,-379.5 1020,-356.5 917,-356.5"/>
<text text-anchor="start" x="964.5" y="-364.3" font-family="arial" font-size="14.00">2</text>
<polygon fill="none" stroke="black" points="1020,-356.5 1020,-379.5 1169,-379.5 1169,-356.5 1020,-356.5"/>
<text text-anchor="start" x="1079" y="-364.3" font-family="arial" font-size="14.00">GND</text>
<polygon fill="none" stroke="black" points="917,-333.5 917,-356.5 1020,-356.5 1020,-333.5 917,-333.5"/>
<text text-anchor="start" x="964.5" y="-341.3" font-family="arial" font-size="14.00">3</text>
<polygon fill="none" stroke="black" points="1020,-333.5 1020,-356.5 1169,-356.5 1169,-333.5 1020,-333.5"/>
<text text-anchor="start" x="1085" y="-341.3" font-family="arial" font-size="14.00">CS</text>
<polygon fill="none" stroke="black" points="917,-310.5 917,-333.5 1020,-333.5 1020,-310.5 917,-310.5"/>
<text text-anchor="start" x="964.5" y="-318.3" font-family="arial" font-size="14.00">4</text>
<polygon fill="none" stroke="black" points="1020,-310.5 1020,-333.5 1169,-333.5 1169,-310.5 1020,-310.5"/>
<text text-anchor="start" x="1084.5" y="-318.3" font-family="arial" font-size="14.00">DC</text>
<polygon fill="none" stroke="black" points="917,-287.5 917,-310.5 1020,-310.5 1020,-287.5 917,-287.5"/>
<text text-anchor="start" x="964.5" y="-295.3" font-family="arial" font-size="14.00">5</text>
<polygon fill="none" stroke="black" points="1020,-287.5 1020,-310.5 1169,-310.5 1169,-287.5 1020,-287.5"/>
<text text-anchor="start" x="1076" y="-295.3" font-family="arial" font-size="14.00">MOSI</text>
<polygon fill="none" stroke="black" points="917,-264.5 917,-287.5 1020,-287.5 1020,-264.5 917,-264.5"/>
<text text-anchor="start" x="964.5" y="-272.3" font-family="arial" font-size="14.00">6</text>
<polygon fill="none" stroke="black" points="1020,-264.5 1020,-287.5 1169,-287.5 1169,-264.5 1020,-264.5"/>
<text text-anchor="start" x="1080.5" y="-272.3" font-family="arial" font-size="14.00">SCK</text>
<polygon fill="none" stroke="black" points="917,-241.5 917,-264.5 1020,-264.5 1020,-241.5 917,-241.5"/>
<text text-anchor="start" x="964.5" y="-249.3" font-family="arial" font-size="14.00">7</text>
<polygon fill="none" stroke="black" points="1020,-241.5 1020,-264.5 1169,-264.5 1169,-241.5 1020,-241.5"/>
<text text-anchor="start" x="1071.5" y="-249.3" font-family="arial" font-size="14.00">SD_CS</text>
<polygon fill="none" stroke="black" points="917,-218.5 917,-241.5 1020,-241.5 1020,-218.5 917,-218.5"/>
<text text-anchor="start" x="964.5" y="-226.3" font-family="arial" font-size="14.00">8</text>
<polygon fill="none" stroke="black" points="1020,-218.5 1020,-241.5 1169,-241.5 1169,-218.5 1020,-218.5"/>
<text text-anchor="start" x="1063" y="-226.3" font-family="arial" font-size="14.00">SD_MOSI</text>
<polygon fill="none" stroke="black" points="917,-195.5 917,-218.5 1020,-218.5 1020,-195.5 917,-195.5"/>
<text text-anchor="start" x="964.5" y="-203.3" font-family="arial" font-size="14.00">9</text>
<polygon fill="none" stroke="black" points="1020,-195.5 1020,-218.5 1169,-218.5 1169,-195.5 1020,-195.5"/>
<text text-anchor="start" x="1063" y="-203.3" font-family="arial" font-size="14.00">SD_MISO</text>
<polygon fill="none" stroke="black" points="917,-172.5 917,-195.5 1020,-195.5 1020,-172.5 917,-172.5"/>
<text text-anchor="start" x="960.5" y="-180.3" font-family="arial" font-size="14.00">10</text>
<polygon fill="none" stroke="black" points="1020,-172.5 1020,-195.5 1169,-195.5 1169,-172.5 1020,-172.5"/>
<text text-anchor="start" x="1067" y="-180.3" font-family="arial" font-size="14.00">SD_SCK</text>
<polygon fill="none" stroke="black" points="917,-134.5 917,-172.5 1169,-172.5 1169,-134.5 917,-134.5"/>
<text text-anchor="start" x="959" y="-157.3" font-family="arial" font-size="14.00">RST + LED tied to 3V3</text>
<text text-anchor="start" x="959" y="-142.3" font-family="arial" font-size="14.00">MISO + F_CS unconnected</text>
</g>
<!-- I2C&#45;&#45;DS3231 -->
<g id="edge2" class="edge">
<title>I2C:e&#45;&#45;DS3231:w</title>
<path fill="none" stroke="#000000" stroke-width="2" d="M731,-607.5C835.22,-607.51 861.32,-604.51 966,-604.5"/>
<path fill="none" stroke="#ff0000" stroke-width="2" d="M731,-609.5C835.45,-609.5 861.55,-606.5 966,-606.5"/>
<path fill="none" stroke="#000000" stroke-width="2" d="M731,-611.5C835.68,-611.49 861.78,-608.49 966,-608.5"/>
</g>
<!-- I2C&#45;&#45;DS3231 -->
<g id="edge4" class="edge">
<title>I2C:e&#45;&#45;DS3231:w</title>
<path fill="none" stroke="#000000" stroke-width="2" d="M731,-582.5C835.37,-582.5 861.48,-581.5 966,-581.5"/>
<path fill="none" stroke="#000000" stroke-width="2" d="M731,-584.5C835.45,-584.5 861.55,-583.5 966,-583.5"/>
<path fill="none" stroke="#000000" stroke-width="2" d="M731,-586.5C835.52,-586.5 861.63,-585.5 966,-585.5"/>
</g>
<!-- I2C&#45;&#45;DS3231 -->
<g id="edge6" class="edge">
<title>I2C:e&#45;&#45;DS3231:w</title>
<path fill="none" stroke="#000000" stroke-width="2" d="M731,-557.5C835.44,-557.5 861.56,-557.5 966,-557.5"/>
<path fill="none" stroke="#00ff00" stroke-width="2" d="M731,-559.5C835.44,-559.5 861.56,-559.5 966,-559.5"/>
<path fill="none" stroke="#000000" stroke-width="2" d="M731,-561.5C835.44,-561.5 861.56,-561.5 966,-561.5"/>
</g>
<!-- I2C&#45;&#45;DS3231 -->
<g id="edge8" class="edge">
<title>I2C:e&#45;&#45;DS3231:w</title>
<path fill="none" stroke="#000000" stroke-width="2" d="M731,-532.5C835.6,-532.51 861.7,-534.51 966,-534.5"/>
<path fill="none" stroke="#ffff00" stroke-width="2" d="M731,-534.5C835.45,-534.5 861.55,-536.5 966,-536.5"/>
<path fill="none" stroke="#000000" stroke-width="2" d="M731,-536.5C835.3,-536.49 861.4,-538.49 966,-538.5"/>
</g>
<!-- SPI0&#45;&#45;D0 -->
<g id="edge10" class="edge">
<title>SPI0:e&#45;&#45;D0:w</title>
<path fill="none" stroke="#000000" stroke-width="2" d="M729,-398.5C811.85,-398.67 832.55,-389.67 917,-389.5"/>
<path fill="none" stroke="#ff0000" stroke-width="2" d="M729,-400.5C812.65,-400.5 833.35,-391.5 917,-391.5"/>
<path fill="none" stroke="#000000" stroke-width="2" d="M729,-402.5C813.45,-402.33 834.15,-393.33 917,-393.5"/>
</g>
<!-- SPI0&#45;&#45;D0 -->
<g id="edge12" class="edge">
<title>SPI0:e&#45;&#45;D0:w</title>
<path fill="none" stroke="#000000" stroke-width="2" d="M729,-373.5C811.97,-373.6 832.75,-366.6 917,-366.5"/>
<path fill="none" stroke="#000000" stroke-width="2" d="M729,-375.5C812.61,-375.5 833.39,-368.5 917,-368.5"/>
<path fill="none" stroke="#000000" stroke-width="2" d="M729,-377.5C813.25,-377.4 834.03,-370.4 917,-370.5"/>
</g>
<!-- SPI0&#45;&#45;D0 -->
<g id="edge14" class="edge">
<title>SPI0:e&#45;&#45;D0:w</title>
<path fill="none" stroke="#000000" stroke-width="2" d="M729,-348.5C812.12,-348.56 832.95,-343.56 917,-343.5"/>
<path fill="none" stroke="#8000ff" stroke-width="2" d="M729,-350.5C812.59,-350.5 833.41,-345.5 917,-345.5"/>
<path fill="none" stroke="#000000" stroke-width="2" d="M729,-352.5C813.05,-352.44 833.88,-347.44 917,-347.5"/>
</g>
<!-- SPI0&#45;&#45;D0 -->
<g id="edge16" class="edge">
<title>SPI0:e&#45;&#45;D0:w</title>
<path fill="none" stroke="#000000" stroke-width="2" d="M729,-323.5C812.28,-323.52 833.15,-320.52 917,-320.5"/>
<path fill="none" stroke="#00ff00" stroke-width="2" d="M729,-325.5C812.57,-325.5 833.43,-322.5 917,-322.5"/>
<path fill="none" stroke="#000000" stroke-width="2" d="M729,-327.5C812.85,-327.48 833.72,-324.48 917,-324.5"/>
</g>
<!-- SPI0&#45;&#45;D0 -->
<g id="edge18" class="edge">
<title>SPI0:e&#45;&#45;D0:w</title>
<path fill="none" stroke="#000000" stroke-width="2" d="M729,-298.5C812.46,-298.5 833.35,-297.5 917,-297.5"/>
<path fill="none" stroke="#0066ff" stroke-width="2" d="M729,-300.5C812.56,-300.5 833.44,-299.5 917,-299.5"/>
<path fill="none" stroke="#000000" stroke-width="2" d="M729,-302.5C812.65,-302.5 833.54,-301.5 917,-301.5"/>
</g>
<!-- SPI0&#45;&#45;D0 -->
<g id="edge20" class="edge">
<title>SPI0:e&#45;&#45;D0:w</title>
<path fill="none" stroke="#000000" stroke-width="2" d="M729,-273.5C812.56,-273.5 833.44,-273.5 917,-273.5"/>
<path fill="none" stroke="#ffff00" stroke-width="2" d="M729,-275.5C812.56,-275.5 833.44,-275.5 917,-275.5"/>
<path fill="none" stroke="#000000" stroke-width="2" d="M729,-277.5C812.56,-277.5 833.44,-277.5 917,-277.5"/>
</g>
<!-- SPI1&#45;&#45;D0 -->
<g id="edge22" class="edge">
<title>SPI1:e&#45;&#45;D0:w</title>
<path fill="none" stroke="#000000" stroke-width="2" d="M773,-117.5C862.07,-119.94 831.83,-252.94 917,-250.5"/>
<path fill="none" stroke="#8000ff" stroke-width="2" d="M773,-119.5C860.12,-119.5 829.88,-252.5 917,-252.5"/>
<path fill="none" stroke="#000000" stroke-width="2" d="M773,-121.5C858.17,-119.06 827.93,-252.06 917,-254.5"/>
</g>
<!-- SPI1&#45;&#45;D0 -->
<g id="edge24" class="edge">
<title>SPI1:e&#45;&#45;D0:w</title>
<path fill="none" stroke="#000000" stroke-width="2" d="M773,-92.5C862.67,-94.95 831.22,-229.95 917,-227.5"/>
<path fill="none" stroke="#0066ff" stroke-width="2" d="M773,-94.5C860.73,-94.5 829.27,-229.5 917,-229.5"/>
<path fill="none" stroke="#000000" stroke-width="2" d="M773,-96.5C858.78,-94.05 827.33,-229.05 917,-231.5"/>
</g>
<!-- SPI1&#45;&#45;D0 -->
<g id="edge26" class="edge">
<title>SPI1:e&#45;&#45;D0:w</title>
<path fill="none" stroke="#000000" stroke-width="2" d="M773,-67.5C863.28,-69.96 830.61,-206.96 917,-204.5"/>
<path fill="none" stroke="#ffffff" stroke-width="2" d="M773,-69.5C861.34,-69.5 828.66,-206.5 917,-206.5"/>
<path fill="none" stroke="#000000" stroke-width="2" d="M773,-71.5C859.39,-69.04 826.72,-206.04 917,-208.5"/>
</g>
<!-- SPI1&#45;&#45;D0 -->
<g id="edge28" class="edge">
<title>SPI1:e&#45;&#45;D0:w</title>
<path fill="none" stroke="#000000" stroke-width="2" d="M773,-42.5C863.9,-44.97 829.99,-183.97 917,-181.5"/>
<path fill="none" stroke="#ffff00" stroke-width="2" d="M773,-44.5C861.95,-44.5 828.05,-183.5 917,-183.5"/>
<path fill="none" stroke="#000000" stroke-width="2" d="M773,-46.5C860.01,-44.03 826.1,-183.03 917,-185.5"/>
</g>
</g>
</svg>
